<?xml version="1.0" standalone="no"?>
<!DOCTYPE svg PUBLIC "-//W3C//DTD SVG 20010904//EN"
 "http://www.w3.org/TR/2001/REC-SVG-20010904/DTD/svg10.dtd">
<svg version="1.0" xmlns="http://www.w3.org/2000/svg"
 width="500.000000pt" height="500.000000pt" viewBox="0 0 500.000000 500.000000"
 preserveAspectRatio="xMidYMid meet">

<g transform="translate(0.000000,500.000000) scale(0.100000,-0.100000)"
fill="#000000" stroke="none">
<path d="M1970 3517 c-64 -42 -73 -71 -81 -263 -5 -114 -13 -185 -23 -208 -15
-36 -67 -76 -98 -76 -15 0 -18 -9 -18 -55 0 -52 2 -55 24 -55 33 0 82 -43 96
-84 6 -18 14 -109 18 -203 7 -140 12 -176 28 -203 32 -55 66 -74 144 -78 l70
-4 0 51 0 51 -39 0 c-65 0 -84 24 -92 116 -4 44 -8 113 -8 155 -1 127 -38 206
-115 247 -18 9 -17 11 12 26 42 22 78 72 91 126 5 25 12 108 15 184 5 169 15
189 90 194 l46 3 0 50 0 49 -64 0 c-49 0 -71 -5 -96 -23z"/>
<path d="M2880 3490 l0 -50 39 0 c23 0 48 -8 62 -19 22 -17 23 -27 30 -187 8
-206 22 -246 104 -300 l25 -16 -39 -28 c-68 -50 -84 -100 -91 -285 -4 -88 -10
-168 -15 -178 -9 -22 -45 -37 -86 -37 -28 0 -29 -1 -29 -51 l0 -51 65 4 c138
9 174 77 175 328 1 162 26 223 96 236 34 6 34 7 34 59 0 51 -1 54 -30 60 -43
9 -88 65 -94 117 -3 24 -7 105 -10 181 -4 119 -8 144 -28 184 -29 59 -72 83
-150 83 l-58 0 0 -50z"/>
<path d="M2360 3430 l0 -40 40 0 40 0 0 40 0 40 -40 0 -40 0 0 -40z"/>
<path d="M2550 3355 c0 -20 5 -25 25 -25 20 0 25 5 25 25 0 20 -5 25 -25 25
-20 0 -25 -5 -25 -25z"/>
<path d="M2642 3313 c3 -36 5 -38 41 -41 l37 -3 0 40 0 41 -41 0 -40 0 3 -37z"/>
<path d="M2690 3220 c0 -25 4 -30 25 -30 21 0 25 5 25 30 0 25 -4 30 -25 30
-21 0 -25 -5 -25 -30z"/>
<path d="M2120 3215 c0 -20 5 -25 25 -25 20 0 25 5 25 25 0 20 -5 25 -25 25
-20 0 -25 -5 -25 -25z"/>
<path d="M2830 3185 c0 -21 5 -25 30 -25 25 0 30 4 30 25 0 21 -5 25 -30 25
-25 0 -30 -4 -30 -25z"/>
<path d="M2520 3145 l0 -55 55 0 55 0 0 55 0 55 -55 0 -55 0 0 -55z"/>
<path d="M2390 3055 c0 -20 5 -25 25 -25 20 0 25 5 25 25 0 20 -5 25 -25 25
-20 0 -25 -5 -25 -25z"/>
<path d="M2690 3025 l0 -55 55 0 55 0 0 55 0 55 -55 0 -55 0 0 -55z"/>
<path d="M2700 2850 l0 -50 50 0 50 0 0 50 0 50 -50 0 -50 0 0 -50z"/>
<path d="M2490 2835 c0 -20 5 -25 25 -25 20 0 25 5 25 25 0 20 -5 25 -25 25
-20 0 -25 -5 -25 -25z"/>
<path d="M2577 2803 c-4 -3 -7 -26 -7 -50 l0 -43 50 0 50 0 0 50 0 50 -43 0
c-24 0 -47 -3 -50 -7z"/>
<path d="M2160 2775 c0 -20 5 -25 25 -25 20 0 25 5 25 25 0 20 -5 25 -25 25
-20 0 -25 -5 -25 -25z"/>
<path d="M2300 2750 c0 -25 4 -30 25 -30 21 0 25 5 25 30 0 25 -4 30 -25 30
-21 0 -25 -5 -25 -30z"/>
<path d="M2420 2715 l0 -55 55 0 55 0 0 55 0 55 -55 0 -55 0 0 -55z"/>
<path d="M2440 2530 l0 -50 50 0 50 0 0 50 0 50 -50 0 -50 0 0 -50z"/>
<path d="M2257 2393 c-4 -3 -7 -28 -7 -55 l0 -48 55 0 55 0 0 55 0 55 -48 0
c-27 0 -52 -3 -55 -7z"/>
<path d="M2410 2350 c0 -27 3 -30 30 -30 27 0 30 3 30 30 0 27 -3 30 -30 30
-27 0 -30 -3 -30 -30z"/>
<path d="M1770 2045 c0 -168 1 -175 20 -175 18 0 20 7 20 73 0 90 16 120 63
115 42 -4 57 -35 57 -120 0 -61 2 -68 20 -68 18 0 20 7 20 84 0 75 -3 88 -25
114 -30 35 -70 46 -107 27 l-28 -13 0 69 c0 62 -2 69 -20 69 -19 0 -20 -7 -20
-175z"/>
<path d="M2330 2045 c0 -166 1 -175 19 -175 11 0 21 5 23 11 3 9 9 9 25 0 28
-14 94 -14 113 2 69 53 66 169 -5 207 -31 17 -90 17 -110 0 -13 -11 -15 -3
-15 59 0 69 -1 71 -25 71 l-25 0 0 -175z m164 -4 c23 -26 23 -86 0 -112 -24
-27 -78 -25 -98 3 -21 29 -20 87 1 110 22 24 75 23 97 -1z"/>
<path d="M2630 2045 l0 -175 25 0 c25 0 25 1 25 78 0 84 14 112 56 112 44 -1
64 -41 64 -131 0 -52 2 -59 20 -59 18 0 20 7 20 74 0 41 -4 86 -10 100 -17 46
-75 70 -127 52 -22 -7 -23 -5 -23 58 0 64 -1 66 -25 66 l-25 0 0 -175z"/>
<path d="M1080 2040 l0 -170 25 0 c24 0 25 2 25 75 l0 75 33 0 c28 0 38 -9 85
-75 46 -64 57 -75 83 -75 16 0 29 2 29 3 0 2 -24 35 -54 72 l-53 69 33 32 c45
42 47 92 5 135 -28 28 -33 29 -120 29 l-91 0 0 -170z m172 113 c47 -42 3 -97
-74 -91 l-43 3 -3 53 -3 52 52 0 c35 0 59 -6 71 -17z"/>
<path d="M1416 2194 c-4 -10 -1 -24 7 -31 19 -19 49 -5 45 21 -4 27 -43 34
-52 10z"/>
<path d="M3182 2079 c3 -127 2 -131 -21 -150 -30 -25 -37 -24 -67 6 -38 38
-73 32 -52 -9 31 -62 110 -76 159 -27 l29 29 0 141 0 141 -25 0 -25 0 2 -131z"/>
<path d="M3593 2194 c-3 -8 2 -23 11 -32 15 -15 17 -15 32 0 21 21 11 48 -16
48 -11 0 -23 -7 -27 -16z"/>
<path d="M2116 2100 c-89 -27 -113 -152 -39 -210 29 -23 101 -27 122 -7 11 10
14 10 18 0 3 -7 13 -13 24 -13 18 0 19 8 19 115 0 108 -1 115 -20 115 -11 0
-20 -4 -20 -9 0 -6 -16 -3 -35 5 -19 7 -36 14 -37 13 -2 0 -16 -5 -32 -9z m80
-61 c23 -26 23 -83 -1 -109 -40 -44 -115 -11 -115 51 0 77 68 111 116 58z"/>
<path d="M3374 2096 c-47 -21 -74 -61 -74 -113 0 -84 90 -140 163 -102 16 9
22 9 25 0 2 -6 12 -11 23 -11 18 0 19 8 19 115 0 107 -1 115 -19 115 -11 0
-21 -6 -24 -12 -3 -10 -7 -10 -18 -2 -24 19 -63 23 -95 10z m91 -59 c36 -52 7
-127 -49 -127 -42 0 -68 28 -69 73 -2 74 79 110 118 54z"/>
<path d="M3788 2096 c-16 -9 -30 -11 -33 -5 -4 5 -15 9 -26 9 -18 0 -19 -8
-19 -115 l0 -115 25 0 c25 0 25 1 25 79 0 89 12 111 59 111 43 0 51 -16 51
-107 0 -76 2 -83 20 -83 19 0 20 7 20 93 -1 100 -8 119 -54 137 -35 13 -36 13
-68 -4z"/>
<path d="M1420 1985 l0 -115 26 0 c26 0 27 1 20 53 -3 28 -6 80 -6 115 0 55
-2 62 -20 62 -19 0 -20 -7 -20 -115z"/>
<path d="M1552 2080 c-44 -41 -22 -86 53 -110 46 -15 59 -29 43 -47 -13 -16
-52 -17 -78 -1 -16 10 -22 10 -32 0 -21 -21 25 -52 76 -52 52 0 86 28 86 70 0
33 -21 50 -83 70 -27 8 -37 17 -35 28 4 22 35 27 65 11 19 -10 26 -10 36 0 9
10 7 16 -12 32 -31 26 -91 25 -119 -1z"/>
<path d="M3600 1985 c0 -108 1 -115 20 -115 19 0 20 7 20 115 0 108 -1 115
-20 115 -19 0 -20 -7 -20 -115z"/>
</g>
</svg>
